<svg aria-hidden="true" style="position: absolute; width: 0; height: 0; overflow: hidden;" version="1.1" xmlns="http://www.w3.org/2000/svg" xmlns:xlink="http://www.w3.org/1999/xlink">
<defs>
<linearGradient id="grad" x1="0%" y1="0%" x2="0%" y2="100%">
    <stop offset="0%" stop-color="#efc977" />
    <stop offset="100%" stop-color="#e07256" />
  </linearGradient>
<symbol id="icon-precipitation" viewBox="0 0 23 32">
<path d="M20.786 21.818c0-1.577-0.557-3.6-1.589-5.903-1.014-2.262-2.389-4.586-3.803-6.708-1.356-2.035-2.718-3.838-3.767-5.162-1.029 1.229-2.346 2.892-3.658 4.801-2.902 4.224-5.371 9.076-5.371 12.973 0 3.756 3.655 7.515 9.094 7.515s9.094-3.759 9.094-7.515zM0 21.818c0-7.249 6.666-15.99 9.932-19.837 1.059-1.248 1.761-1.981 1.761-1.981s0.672 0.762 1.694 2.039c3.24 4.050 9.999 13.276 9.999 19.779 0 5.623-5.235 10.182-11.692 10.182s-11.692-4.558-11.692-10.182zM5.844 17.333h2.795c-0.526 1.232-0.844 2.4-0.844 3.394 0 1.526 1.455 3.273 3.897 3.273v2.667c-3.588 0-6.496-2.659-6.496-5.939 0-1.095 0.248-2.247 0.647-3.394z"></path>
</symbol>
<symbol id="icon-wind" viewBox="0 0 35 32">
<path d="M14.4 6.727v-0.010l-8.152-0 7.818-3.307c0.15-0.044 0.305-0.060 0.459-0.046 0.020 0.002 0.041 0.004 0.061 0.007l0 0c0.212 0.029 0.415 0.113 0.596 0.245v0c0.181 0.132 0.334 0.31 0.449 0.52l0 0c0.115 0.21 0.188 0.448 0.215 0.695v0c0.027 0.248 0.006 0.499-0.060 0.736l-0 0c-0.067 0.237-0.177 0.454-0.324 0.635l-0 0c-0.147 0.181-0.326 0.321-0.525 0.411l-0 0c-0.019 0.008-0.037 0.016-0.056 0.024-0.155 0.061-0.317 0.091-0.48 0.089zM0 5.776v4.31l14.371 0c0.546 0.007 1.089-0.107 1.599-0.338l0-0c0.389-0.175 0.753-0.415 1.081-0.712 0.175-0.158 0.339-0.331 0.492-0.519l0-0c0.44-0.542 0.772-1.191 0.971-1.901l0-0c0.199-0.71 0.261-1.463 0.181-2.204v-0c-0.080-0.741-0.3-1.453-0.643-2.082l-0-0c-0.344-0.63-0.803-1.162-1.344-1.559v-0c-0.188-0.138-0.384-0.258-0.587-0.36-0.381-0.191-0.784-0.318-1.198-0.375l-0-0c-0.617-0.085-1.242-0.013-1.832 0.211l-0.001-0.001-0.044 0.019-0.005 0.002-0.001 0-13.039 5.511zM0 20.207v3.46l19.016 7.913c0.688 0.321 1.428 0.461 2.168 0.409 0.284-0.020 0.566-0.068 0.842-0.143 0.442-0.12 0.869-0.31 1.269-0.566 0.651-0.415 1.215-0.993 1.652-1.692s0.738-1.503 0.88-2.354 0.121-1.728-0.060-2.568c-0.181-0.841-0.518-1.624-0.988-2.295-0.289-0.413-0.624-0.777-0.994-1.082-0.231-0.191-0.477-0.359-0.734-0.503-0.668-0.373-1.397-0.569-2.137-0.574v-0.005l-20.914-0zM20.895 23.576l-12.521-0 11.762 4.898c0.28 0.121 0.578 0.172 0.876 0.151 0.317-0.022 0.625-0.126 0.904-0.304s0.52-0.425 0.708-0.725c0.187-0.3 0.316-0.644 0.377-1.008s0.052-0.74-0.026-1.1c-0.077-0.36-0.222-0.695-0.423-0.983s-0.454-0.519-0.74-0.679c-0.286-0.16-0.599-0.243-0.915-0.246h-0.001v-0.006zM27.386 7.155l-0.001 0.001-1.418-2.936 0.003-0.002c0.767-0.506 1.623-0.8 2.502-0.859 0.128-0.009 0.255-0.012 0.382-0.011 0.751 0.008 1.495 0.188 2.19 0.532 0.812 0.402 1.534 1.016 2.111 1.796s0.993 1.704 1.217 2.702c0.224 0.998 0.248 2.042 0.073 3.053s-0.547 1.961-1.086 2.777c-0.461 0.698-1.034 1.282-1.685 1.72-0.11 0.074-0.223 0.145-0.338 0.21-0.792 0.454-1.662 0.689-2.543 0.688v-0h-28.792v-3.368l28.796-0.004c0.44 0.001 0.875-0.117 1.27-0.344s0.741-0.557 1.010-0.964c0.269-0.408 0.455-0.882 0.543-1.387s0.075-1.027-0.036-1.525c-0.112-0.498-0.32-0.96-0.608-1.35s-0.649-0.696-1.055-0.897c-0.406-0.201-0.845-0.29-1.285-0.26s-0.867 0.176-1.25 0.429z"></path>
</symbol>
<symbol id="icon-pressure" viewBox="0 0 32 32">
<path d="M13.003 21.76c-1.102 1.915-0.36 3.488 1.171 4.371 1.53 0.885 3.266 0.744 4.371-1.171 1.102-1.912 8.075-18.984 7.469-19.334s-11.907 14.221-13.011 16.134zM16 9.6c0.701 0 1.382 0.059 2.050 0.174 0.701-0.878 1.485-1.846 2.248-2.765-1.287-0.387-2.766-0.609-4.298-0.61h-0c-8.971 0-16 7.566-16 17.226 0 0.594 0.026 1.187 0.078 1.765 0.078 0.882 0.864 1.528 1.734 1.453 0.882-0.082 1.531-0.856 1.453-1.738-0.042-0.443-0.066-0.959-0.066-1.48v-0c0-7.866 5.622-14.026 12.8-14.026zM27.55 11.6c-0.446 1.2-0.918 2.422-1.334 3.478 1.624 2.352 2.584 5.302 2.584 8.547 0 0.506-0.024 1.016-0.069 1.509-0.001 0.024-0.002 0.052-0.002 0.080 0 0.885 0.717 1.602 1.602 1.602 0.81 0 1.48-0.601 1.587-1.382l0.001-0.008c0.053-0.592 0.082-1.197 0.082-1.8 0-4.726-1.685-8.944-4.45-12.026z"></path>
</symbol>
<symbol id="icon-logo" viewBox="0 0 32 32">
<path fill="url(#grad)" d="M14.857 3.429h2.286v-3.429h-2.286v3.429zM21.296 4.542l1.979 1.143 1.714-2.969-1.979-1.143-1.714 2.969zM16 24c-4.418 0-8-3.582-8-8s3.582-8 8-8c4.418 0 8 3.582 8 8s-3.582 8-8 8zM16 26.286c5.681 0 10.286-4.605 10.286-10.286s-4.605-10.286-10.286-10.286c-5.681 0-10.286 4.605-10.286 10.286s4.605 10.286 10.286 10.286zM28.571 14.857v2.286h3.429v-2.286h-3.429zM29.285 7.010l1.143 1.979-2.969 1.714-1.143-1.979 2.969-1.714zM7.010 2.715l1.979-1.143 1.714 2.969-1.979 1.143-1.714-2.969zM4.541 10.704l1.143-1.979-2.969-1.714-1.143 1.979 2.969 1.714zM14.857 28.571h2.286v3.429h-2.286v-3.429zM3.429 14.857v2.286h-3.429v-2.286h3.429zM1.572 23.010l1.143 1.979 2.969-1.714-1.143-1.979-2.969 1.714zM8.725 26.316l1.979 1.143-1.714 2.969-1.979-1.143 1.714-2.969zM23.010 30.428l1.979-1.143-1.714-2.969-1.979 1.143 1.714 2.969zM26.316 23.275l1.143-1.979 2.969 1.714-1.143 1.979-2.969-1.714z"></path>
</symbol>
<symbol id="icon-degree" viewBox="0 0 17 32">
<path d="M9.933 20.771v-6.953c0-0.386-0.149-0.756-0.416-1.028s-0.627-0.426-1.003-0.426-0.737 0.153-1.003 0.426c-0.266 0.273-0.416 0.643-0.416 1.028v6.953c-0.429 0.254-0.785 0.618-1.034 1.057s-0.381 0.937-0.384 1.445c0 0.772 0.299 1.511 0.831 2.057s1.254 0.852 2.006 0.852 1.474-0.307 2.006-0.852c0.532-0.546 0.831-1.286 0.831-2.057-0.003-0.508-0.136-1.006-0.384-1.445s-0.606-0.803-1.034-1.057zM14.899 17.454v-10.909c0-1.736-0.673-3.401-1.87-4.628s-2.821-1.917-4.514-1.917c-1.693 0-3.317 0.69-4.514 1.917s-1.87 2.892-1.87 4.628v10.909c-0.981 1.139-1.654 2.521-1.954 4.009s-0.216 3.030 0.244 4.475c0.46 1.444 1.28 2.74 2.378 3.76s2.438 1.728 3.885 2.054c0.601 0.14 1.214 0.223 1.83 0.247 1.647 0.008 3.26-0.474 4.645-1.387s2.482-2.219 3.157-3.758 0.901-3.247 0.65-4.915c-0.252-1.668-0.97-3.226-2.068-4.484zM12.061 27.738c-1.129 1.026-2.609 1.55-4.115 1.458s-2.914-0.795-3.915-1.952c-1.001-1.157-1.512-2.675-1.422-4.219s0.775-2.988 1.904-4.014c0.134-0.135 0.241-0.295 0.314-0.473s0.111-0.368 0.112-0.56v-11.433c0-0.964 0.374-1.889 1.039-2.571s1.567-1.065 2.508-1.065c0.941 0 1.843 0.383 2.508 1.065s1.039 1.607 1.039 2.571v11.549c0.001 0.192 0.039 0.383 0.112 0.56s0.18 0.338 0.314 0.473c0.58 0.574 1.034 1.269 1.331 2.037s0.432 1.593 0.395 2.419c-0.038 0.826-0.246 1.634-0.612 2.37s-0.881 1.385-1.511 1.901v-0.116z"></path>
</symbol>
<symbol id="icon-humidity" viewBox="0 0 32 32">
<path d="M17.333 31.999c-2.121-0.002-4.155-0.846-5.654-2.346s-2.343-3.533-2.345-5.654c0-2.080 1.6-5.393 4.736-9.851 0.372-0.519 0.863-0.941 1.431-1.233s1.197-0.444 1.836-0.444c0.638 0 1.268 0.152 1.836 0.444s1.059 0.714 1.431 1.233c3.137 4.457 4.731 7.771 4.731 9.851-0.002 2.121-0.846 4.155-2.346 5.654s-3.533 2.343-5.654 2.346v0zM17.333 15.123c-0.213-0.002-0.423 0.049-0.612 0.147s-0.351 0.241-0.472 0.416c-3.835 5.439-4.249 7.625-4.249 8.313 0 1.415 0.562 2.771 1.562 3.771s2.357 1.562 3.771 1.562 2.771-0.562 3.771-1.562c1-1 1.562-2.357 1.562-3.771 0-0.688-0.415-2.875-4.249-8.313-0.121-0.175-0.283-0.318-0.472-0.416s-0.399-0.148-0.612-0.147v0z"></path>
<path d="M6.667 14.668c-1.767-0.002-3.462-0.705-4.712-1.955s-1.953-2.944-1.955-4.712c0-1.68 1.123-3.807 3.432-6.503 0.401-0.466 0.897-0.839 1.455-1.096s1.165-0.389 1.78-0.389c0.614 0 1.221 0.133 1.78 0.389s1.055 0.63 1.455 1.096c2.309 2.693 3.432 4.82 3.432 6.503-0.002 1.767-0.705 3.462-1.955 4.712s-2.944 1.953-4.712 1.955v0zM6.667 2.668c-0.23-0.001-0.458 0.049-0.667 0.146s-0.394 0.239-0.541 0.416c-2.591 3.024-2.792 4.415-2.792 4.772 0 1.061 0.421 2.078 1.172 2.828s1.768 1.172 2.828 1.172 2.078-0.421 2.828-1.172c0.75-0.75 1.172-1.768 1.172-2.828 0-0.355-0.201-1.745-2.792-4.768-0.147-0.178-0.332-0.32-0.541-0.418s-0.437-0.148-0.667-0.147v0z"></path>
<path d="M26 13.284c-1.591-0.002-3.116-0.634-4.241-1.759s-1.758-2.65-1.759-4.241c0-1.455 0.933-3.341 2.861-5.768 0.377-0.47 0.855-0.848 1.398-1.109s1.138-0.395 1.74-0.395 1.197 0.135 1.74 0.395c0.543 0.26 1.021 0.639 1.398 1.109 1.928 2.427 2.861 4.313 2.861 5.768-0.002 1.591-0.634 3.116-1.759 4.241s-2.65 1.758-4.241 1.759zM26 2.666c-0.202-0-0.401 0.045-0.583 0.133s-0.341 0.216-0.466 0.375c-2.12 2.672-2.284 3.821-2.284 4.111 0 0.884 0.351 1.732 0.976 2.357s1.473 0.976 2.357 0.976 1.732-0.351 2.357-0.976c0.625-0.625 0.976-1.473 0.976-2.357 0-0.289-0.164-1.439-2.284-4.109-0.125-0.159-0.284-0.287-0.466-0.376s-0.381-0.134-0.583-0.134z"></path>
</symbol>
<symbol id="icon-sunset" viewBox="0 0 32 32">
<path d="M0 16c0-0.354 0.14-0.693 0.391-0.943s0.589-0.39 0.943-0.39h5.439c0.105-0.732 0.3-1.448 0.579-2.133l-4.708-2.735c-0.157-0.085-0.296-0.2-0.408-0.339s-0.195-0.299-0.243-0.471c-0.049-0.172-0.063-0.351-0.040-0.529s0.079-0.348 0.169-0.503c0.089-0.155 0.209-0.29 0.351-0.397s0.305-0.185 0.478-0.229c0.173-0.044 0.353-0.052 0.53-0.025s0.345 0.090 0.497 0.184l4.713 2.731c0.451-0.566 0.966-1.078 1.535-1.527l-2.733-4.716c-0.164-0.305-0.203-0.663-0.109-0.996s0.316-0.617 0.616-0.79c0.3-0.173 0.656-0.223 0.992-0.139s0.626 0.297 0.809 0.592l2.735 4.705c0.685-0.277 1.402-0.471 2.133-0.577v-5.44c0-0.354 0.14-0.693 0.39-0.943s0.589-0.391 0.943-0.391c0.354 0 0.693 0.14 0.943 0.391s0.39 0.589 0.39 0.943v5.44c0.732 0.106 1.448 0.3 2.133 0.577l2.729-4.709c0.182-0.295 0.472-0.507 0.809-0.592s0.692-0.035 0.992 0.139c0.3 0.173 0.521 0.457 0.616 0.79s0.056 0.691-0.108 0.996l-2.733 4.715c0.568 0.449 1.083 0.96 1.536 1.525l4.708-2.729c0.305-0.164 0.662-0.203 0.996-0.109s0.617 0.316 0.79 0.616c0.173 0.3 0.223 0.656 0.138 0.992s-0.297 0.626-0.591 0.809l-4.695 2.732c0.282 0.691 0.479 1.414 0.588 2.152l5.425-0.011c0.354 0 0.693 0.14 0.943 0.39s0.39 0.589 0.39 0.943c0 0.354-0.14 0.693-0.39 0.943s-0.589 0.39-0.943 0.39h-5.437c-0.639-0.002-1.256-0.234-1.738-0.652s-0.799-0.997-0.891-1.629c-0.244-1.575-1.043-3.012-2.254-4.049s-2.752-1.608-4.346-1.608-3.136 0.57-4.346 1.608c-1.21 1.037-2.010 2.474-2.254 4.049-0.092 0.632-0.408 1.21-0.891 1.628s-1.099 0.65-1.737 0.653h-5.439c-0.354 0-0.693-0.14-0.943-0.39s-0.391-0.589-0.391-0.943z"></path>
<path d="M1.067 18.667h29.867c0.589 0 1.067 0.478 1.067 1.067v0.533c0 0.589-0.478 1.067-1.067 1.067h-29.867c-0.589 0-1.067-0.478-1.067-1.067v-0.533c0-0.589 0.478-1.067 1.067-1.067z"></path>
</symbol>
<symbol id="icon-maps" viewBox="0 0 32 32">
<path d="M16 8c-1.055 0-2.086 0.313-2.963 0.899s-1.561 1.419-1.964 2.394c-0.404 0.975-0.509 2.047-0.303 3.082s0.714 1.985 1.46 2.731c0.746 0.746 1.696 1.254 2.731 1.46s2.107 0.1 3.081-0.303c0.975-0.404 1.808-1.087 2.394-1.964s0.899-1.908 0.899-2.963c0-1.415-0.562-2.771-1.562-3.771s-2.357-1.562-3.771-1.562zM16 16c-0.527 0-1.043-0.156-1.482-0.449s-0.78-0.71-0.982-1.197c-0.202-0.487-0.255-1.023-0.152-1.541s0.357-0.992 0.73-1.365c0.373-0.373 0.848-0.627 1.365-0.73s1.053-0.050 1.541 0.152 0.904 0.544 1.197 0.982c0.293 0.438 0.449 0.954 0.449 1.482 0 0.707-0.281 1.386-0.781 1.886s-1.178 0.781-1.886 0.781z"></path>
<path d="M16 32c-1.123 0.006-2.231-0.258-3.231-0.768s-1.863-1.253-2.517-2.165c-5.081-7.009-7.659-12.279-7.659-15.663 0-3.556 1.412-6.966 3.927-9.48s5.924-3.927 9.48-3.927c3.556 0 6.966 1.413 9.48 3.927s3.927 5.924 3.927 9.48c0 3.384-2.577 8.653-7.659 15.663-0.654 0.913-1.517 1.655-2.517 2.165s-2.108 0.774-3.231 0.768v0zM16 2.908c-2.783 0.003-5.452 1.11-7.42 3.079s-3.075 4.637-3.079 7.42c0 2.68 2.524 7.636 7.105 13.955 0.389 0.536 0.899 0.972 1.489 1.272s1.242 0.457 1.904 0.457 1.315-0.157 1.904-0.457c0.59-0.301 1.1-0.737 1.489-1.272 4.581-6.319 7.105-11.275 7.105-13.955-0.003-2.784-1.11-5.452-3.078-7.42s-4.637-3.075-7.42-3.079v0z"></path>
</symbol>
<symbol id="icon-list" viewBox="0 0 32 32">
<path d="M9.333 8h21.333c0.354 0 0.693-0.14 0.943-0.391s0.39-0.589 0.39-0.943c0-0.354-0.14-0.693-0.39-0.943s-0.589-0.391-0.943-0.391h-21.333c-0.354 0-0.693 0.14-0.943 0.391s-0.391 0.589-0.391 0.943c0 0.354 0.14 0.693 0.391 0.943s0.589 0.391 0.943 0.391z"></path>
<path d="M30.667 14.666h-21.333c-0.354 0-0.693 0.14-0.943 0.391s-0.391 0.589-0.391 0.943c0 0.354 0.14 0.693 0.391 0.943s0.589 0.39 0.943 0.39h21.333c0.354 0 0.693-0.14 0.943-0.39s0.39-0.589 0.39-0.943c0-0.354-0.14-0.693-0.39-0.943s-0.589-0.391-0.943-0.391z"></path>
<path d="M30.667 24h-21.333c-0.354 0-0.693 0.14-0.943 0.39s-0.391 0.589-0.391 0.943c0 0.354 0.14 0.693 0.391 0.943s0.589 0.39 0.943 0.39h21.333c0.354 0 0.693-0.14 0.943-0.39s0.39-0.589 0.39-0.943c0-0.354-0.14-0.693-0.39-0.943s-0.589-0.39-0.943-0.39z"></path>
<path d="M2.667 9.333c1.473 0 2.667-1.194 2.667-2.667s-1.194-2.667-2.667-2.667c-1.473 0-2.667 1.194-2.667 2.667s1.194 2.667 2.667 2.667z"></path>
<path d="M2.667 18.667c1.473 0 2.667-1.194 2.667-2.667s-1.194-2.667-2.667-2.667c-1.473 0-2.667 1.194-2.667 2.667s1.194 2.667 2.667 2.667z"></path>
<path d="M2.667 28c1.473 0 2.667-1.194 2.667-2.667s-1.194-2.667-2.667-2.667c-1.473 0-2.667 1.194-2.667 2.667s1.194 2.667 2.667 2.667z"></path>
</symbol>
<symbol id="icon-search" viewBox="0 0 32 32">
<path d="M31.609 29.725l-7.959-7.959c2.169-2.653 3.235-6.037 2.978-9.454s-1.817-6.604-4.358-8.903-5.868-3.533-9.293-3.447c-3.425 0.086-6.687 1.485-9.109 3.907s-3.822 5.684-3.907 9.109c-0.086 3.425 1.149 6.752 3.447 9.293s5.486 4.101 8.903 4.358c3.417 0.257 6.801-0.81 9.454-2.978l7.959 7.959c0.251 0.243 0.588 0.377 0.938 0.374s0.684-0.143 0.931-0.39c0.247-0.247 0.387-0.582 0.39-0.931s-0.131-0.686-0.374-0.938zM13.333 24.001c-2.11 0-4.172-0.626-5.926-1.798s-3.121-2.838-3.929-4.787c-0.807-1.949-1.019-4.094-0.607-6.163s1.427-3.97 2.919-5.462 3.392-2.508 5.461-2.919c2.069-0.412 4.214-0.2 6.163 0.607s3.615 2.175 4.787 3.929 1.798 3.816 1.798 5.926c-0.003 2.828-1.128 5.539-3.128 7.539s-4.711 3.124-7.539 3.128z"></path>
</symbol>
<symbol id="icon-home" viewBox="0 0 32 32">
<path d="M4.8 32h22.4c2.651 0 4.8-2.153 4.8-4.809v-12.284c0-1.363-0.578-2.662-1.589-3.574l-11.2-10.098c-1.825-1.646-4.597-1.646-6.422 0l-11.2 10.098c-1.011 0.912-1.589 2.211-1.589 3.574v12.284c0 2.656 2.149 4.809 4.8 4.809zM29.6 14.907v12.284c0 1.328-1.075 2.404-2.4 2.404h-4.8v-8.816c0-2.656-2.149-4.809-4.8-4.809h-3.2c-2.651 0-4.8 2.153-4.8 4.809v8.816h-4.8c-1.325 0-2.4-1.076-2.4-2.404v-12.284c0-0.682 0.289-1.331 0.794-1.787l11.2-10.098c0.913-0.823 2.298-0.823 3.211 0l11.2 10.098c0.506 0.456 0.794 1.105 0.794 1.787zM12 29.596v-8.816c0-1.328 1.075-2.404 2.4-2.404h3.2c1.325 0 2.4 1.076 2.4 2.404v8.816h-8z"></path>
</symbol>
<symbol id="icon-Chevron_right" viewBox="0 0 32 32">
<path stroke-linejoin="round" stroke-linecap="round" stroke-miterlimit="4" stroke-width="2.6667" d="M12 6.667l9.333 9.333-9.333 9.333"></path>
</symbol>
<symbol id="icon-Chevron_left" viewBox="0 0 32 32">
<path stroke-linejoin="round" stroke-linecap="round" stroke-miterlimit="4" stroke-width="2.6667" d="M20 25.333l-9.333-9.333 9.333-9.333"></path>
</symbol>
</defs>
</svg>
