<svg width="41" height="41" viewBox="0 0 41 41" fill="none" xmlns="http://www.w3.org/2000/svg">
<path fill-rule="evenodd" clip-rule="evenodd" d="M19.0357 4.39286V0H21.9643V4.39286H19.0357ZM27.2856 5.81879L29.482 2.01447L32.0182 3.47875L29.8218 7.28308L27.2856 5.81879ZM20.5 30.75C26.1609 30.75 30.75 26.1609 30.75 20.5C30.75 14.8391 26.1609 10.25 20.5 10.25C14.8391 10.25 10.25 14.8391 10.25 20.5C10.25 26.1609 14.8391 30.75 20.5 30.75ZM20.5 33.6786C27.7783 33.6786 33.6786 27.7783 33.6786 20.5C33.6786 13.2217 27.7783 7.32143 20.5 7.32143C13.2217 7.32143 7.32143 13.2217 7.32143 20.5C7.32143 27.7783 13.2217 33.6786 20.5 33.6786ZM36.6071 19.0357H41V21.9643H36.6071V19.0357ZM37.5213 8.98189L33.717 11.1783L35.1813 13.7145L38.9856 11.5181L37.5213 8.98189ZM8.98189 3.47875L11.1783 7.28308L13.7145 5.81879L11.5181 2.01447L8.98189 3.47875ZM5.8187 13.7145L2.01438 11.5181L3.47866 8.98189L7.28299 11.1783L5.8187 13.7145ZM19.0357 36.6071V41H21.9643V36.6071H19.0357ZM4.39286 19.0357H0V21.9643H4.39286V19.0357ZM2.0143 29.4819L5.81862 27.2855L7.28291 29.8217L3.47858 32.0181L2.0143 29.4819ZM11.1784 33.7172L8.98198 37.5215L11.5182 38.9858L13.7146 35.1815L11.1784 33.7172ZM29.4819 38.9858L27.2855 35.1815L29.8217 33.7172L32.0181 37.5215L29.4819 38.9858ZM33.7171 29.8217L37.5214 32.0181L38.9857 29.4819L35.1814 27.2855L33.7171 29.8217Z" fill="url(#paint0_linear_2003_272)"/>
<defs>
<linearGradient id="paint0_linear_2003_272" x1="20.5" y1="0" x2="20.5" y2="41" gradientUnits="userSpaceOnUse">
<stop stop-color="#EFC977"/>
<stop offset="1" stop-color="#E07256"/>
</linearGradient>
</defs>
</svg>
